<svg xmlns="http://www.w3.org/2000/svg" version="1.1" xmlns:xlink="http://www.w3.org/1999/xlink" xmlns:svgjs="http://svgjs.dev/svgjs" viewBox="0 0 600 600"><path d="M269.0559421886103 188.81118945142316C235.6643342682815 194.0559455142487 126.04895366321966 156.64335548739322 102.27273143421576 187.76223925611066C78.49650920521185 218.88112302482813 101.223782510469 330.7692455834219 126.39860881458685 375.52449206372785C151.5734351187047 420.2797385440338 203.14686676950225 447.9021114891836 253.3216892589228 456.2937181379466C303.4965117483434 464.68532478670966 383.21677491159204 437.2377692447174 427.4475437511103 425.874131956306C471.6783125906285 414.51049466789453 523.4265781749385 406.2937130516836 518.7063022960323 388.11189440747785C513.9860264171263 369.9300757632721 434.7902256358759 341.0839199608633 399.1258884776728 316.7832200910716C363.46155131946966 292.4825202212799 307.69230998646185 261.01398893058985 304.7202793468134 242.30769518872785C301.748248707165 223.60140144686585 370.1048923839228 219.23077308993226 381.29370463978216 204.54545763989972C392.48251689564154 189.86014218986716 384.965040495902 162.2377616153229 371.85315288196966 154.19580248853254C358.74126526803735 146.15384336174216 319.75524740508166 150.52447171867576 302.6223789561884 156.29370287915754C285.48951050729517 162.06293403963932 302.4475501089391 183.56643338859763 269.0559421886103 188.81118945142316C235.6643342682815 194.0559455142487 126.04895366321966 156.64335548739322 102.27273143421576 187.76223925611066 " fill="hsl(205, 47%, 69%)" stroke-width="0" stroke="hsl(340, 45%, 30%)" transform="matrix(0.7660444431189781,-0.6427876096865395,0.6427876096865395,0.7660444431189781,-123.79605382908483,267.5338125358288)"></path><defs><radialGradient id="SvgjsRadialGradient1000"><stop stop-color="hsl(340, 45%, 50%)" offset="0"></stop><stop stop-color="hsl(340, 45%, 80%)" offset="1"></stop></radialGradient><linearGradient id="SvgjsLinearGradient1001" gradientTransform="rotate(109, 0.5, 0.5)"><stop stop-color="hsl(50, 98%, 60%)" offset="0"></stop><stop stop-color="hsl(50, 98%, 80%)" offset="1"></stop></linearGradient></defs></svg>