<svg xmlns="http://www.w3.org/2000/svg" version="1.1" xmlns:xlink="http://www.w3.org/1999/xlink" xmlns:svgjs="http://svgjs.dev/svgjs" viewBox="0 0 600 600"><path d="M479.8950910234797 253.84613928094552C455.59439115368804 229.19578934604968 411.0139824215917 159.4405479520067 388.636362996136 136.36362585321115C366.2587435706802 113.28670375441558 363.636368082399 111.18880082065905 345.62937447074535 115.38460668817208C327.6223808590917 119.58041255568511 298.9510450029719 145.8041954129442 280.5944013262141 161.53846105828927C262.2377576494563 177.27272670363433 257.86713437878575 200.52446620558746 235.48951241019847 209.7902005602424C213.11189044161122 219.05593491489734 169.930069254274 213.46153641636218 146.32866951469066 217.13286718621896C122.72726977510733 220.80419795607574 108.91607885205231 215.7342694689338 93.88111397269847 231.81818517938302C78.84614909334464 247.90210088983224 56.81818036877595 290.7342669258023 56.11888023856761 313.6363614489143C55.41958010835928 336.53845597202627 71.85314524812979 353.3216641832893 89.68531319144847 369.2307523180549C107.51748113476715 385.1398404528205 135.31468483451488 404.7202593574429 163.11188789847972 409.090890257508C190.90909096244457 413.46152115757315 224.125875121787 399.8251635322476 256.46853157523753 395.4545377184455C288.81118802868804 391.08391190464346 332.34265419486644 375.524478921245 357.16782661918285 382.8671353746955C381.99299904349925 390.209791828146 379.54544095837554 433.5664202461148 405.419566121136 439.51047643914865C431.2936912838964 445.4545326321825 487.41257759574535 431.46853511427884 512.4125775957453 418.53147253289865C537.4125775957453 405.59440995151846 551.7482353512792 384.26572546258615 555.419566121136 361.8881009508674C559.0908968909928 339.51047643914865 547.027974731162 302.2727190742398 534.440562214886 284.26572546258615C521.8531496986099 266.2587318509325 504.1957908932714 278.49648921584134 479.8950910234797 253.84613928094552C455.59439115368804 229.19578934604968 411.0139824215917 159.4405479520067 388.636362996136 136.36362585321115 " fill="hsl(105, 43%, 64%)" transform="matrix(0.9396926207859084,0.3420201433256687,-0.3420201433256687,0.9396926207859084,113.29592751877101,-87.96775006279904)"></path></svg>